<svg width="511" height="690" viewBox="0 0 511 690" fill="none" xmlns="http://www.w3.org/2000/svg">
<mask id="path-1-inside-1_507_54" fill="white">
<path d="M0 55H511V670C511 681.046 502.046 690 491 690H20C8.95429 690 0 681.046 0 670V55Z"/>
</mask>
<path d="M0 55H511V670C511 681.046 502.046 690 491 690H20C8.95429 690 0 681.046 0 670V55Z" fill="#FDFFFA"/>
<path d="M0 55H511H0ZM512 670C512 681.598 502.598 691 491 691H20C8.40202 691 -1 681.598 -1 670H1C1 680.493 9.50659 689 20 689H491C501.493 689 510 680.493 510 670H512ZM20 691C8.40202 691 -1 681.598 -1 670V55H1V670C1 680.493 9.50659 689 20 689V691ZM512 55V670C512 681.598 502.598 691 491 691V689C501.493 689 510 680.493 510 670V55H512Z" fill="#294B29" mask="url(#path-1-inside-1_507_54)"/>
<path d="M0 20C0 8.95431 8.95431 0 20 0H491C502.046 0 511 8.95431 511 20V55H0V20Z" fill="#294B29"/>
<circle cx="30.875" cy="28" r="7.875" fill="#E0F8AC"/>
<circle cx="55.625" cy="28" r="7.875" fill="#E0F8AC"/>
<circle cx="80.375" cy="28" r="7.875" fill="#E0F8AC"/>
<rect x="30.4" y="237.4" width="233.2" height="48.2" rx="4.6" stroke="#A5CF68" stroke-width="0.8"/>
<circle cx="60" cy="261.5" r="10" fill="#A5CF68"/>
<path d="M85.3672 268.5V254.408H90.3867C93.0332 254.408 94.9082 256.234 94.9082 258.91V258.93C94.9082 261.605 93.0332 263.471 90.3867 263.471H87.125V268.5H85.3672ZM89.9375 255.971H87.125V261.908H89.9375C91.9492 261.908 93.1113 260.805 93.1113 258.949V258.93C93.1113 257.074 91.9492 255.971 89.9375 255.971ZM100.357 268.695C97.4375 268.695 95.6797 266.654 95.6797 263.461V263.451C95.6797 260.307 97.4766 258.148 100.25 258.148C103.023 258.148 104.713 260.209 104.713 263.256V263.881H97.3984C97.4375 265.971 98.5898 267.191 100.396 267.191C101.686 267.191 102.594 266.547 102.887 265.678L102.916 265.59H104.586L104.566 265.688C104.234 267.367 102.574 268.695 100.357 268.695ZM100.24 259.652C98.7656 259.652 97.6133 260.658 97.4277 262.553H102.984C102.818 260.58 101.725 259.652 100.24 259.652ZM106.432 268.5V258.344H108.131V260.062H108.17C108.512 258.891 109.391 258.148 110.533 258.148C110.826 258.148 111.08 258.197 111.217 258.217V259.867C111.08 259.818 110.719 259.77 110.309 259.77C108.99 259.77 108.131 260.688 108.131 262.23V268.5H106.432ZM116.207 268.695C113.814 268.695 112.369 267.475 112.164 265.658L112.154 265.57H113.854L113.873 265.668C114.078 266.684 114.83 267.279 116.217 267.279C117.594 267.279 118.414 266.703 118.414 265.785V265.775C118.414 265.043 118.033 264.633 116.881 264.35L115.27 263.959C113.355 263.5 112.428 262.611 112.428 261.146V261.137C112.428 259.389 113.961 258.148 116.158 258.148C118.385 258.148 119.801 259.447 119.928 261.146L119.938 261.273H118.316L118.307 261.205C118.17 260.219 117.418 259.564 116.158 259.564C114.928 259.564 114.166 260.16 114.166 261.059V261.068C114.166 261.762 114.625 262.24 115.748 262.514L117.359 262.904C119.41 263.402 120.152 264.213 120.152 265.658V265.668C120.152 267.445 118.473 268.695 116.207 268.695ZM126.129 268.695C123.307 268.695 121.422 266.654 121.422 263.422V263.402C121.422 260.17 123.316 258.148 126.119 258.148C128.922 258.148 130.826 260.16 130.826 263.402V263.422C130.826 266.664 128.932 268.695 126.129 268.695ZM126.139 267.191C127.926 267.191 129.088 265.805 129.088 263.422V263.402C129.088 261.02 127.916 259.652 126.119 259.652C124.352 259.652 123.16 261.029 123.16 263.402V263.422C123.16 265.814 124.342 267.191 126.139 267.191ZM132.545 268.5V258.344H134.244V259.789H134.283C134.83 258.842 135.865 258.148 137.408 258.148C139.635 258.148 140.924 259.594 140.924 261.908V268.5H139.225V262.211C139.225 260.561 138.453 259.652 136.891 259.652C135.289 259.652 134.244 260.795 134.244 262.523V268.5H132.545ZM146.061 268.695C144.039 268.695 142.682 267.475 142.682 265.629V265.609C142.682 263.881 144.029 262.797 146.363 262.66L149.273 262.494V261.645C149.273 260.404 148.463 259.652 147.047 259.652C145.738 259.652 144.918 260.277 144.723 261.186L144.703 261.273H143.062L143.072 261.166C143.219 259.496 144.674 258.148 147.066 258.148C149.469 258.148 150.973 259.447 150.973 261.479V268.5H149.273V266.85H149.234C148.639 267.963 147.418 268.695 146.061 268.695ZM144.42 265.629C144.42 266.605 145.221 267.221 146.441 267.221C148.043 267.221 149.273 266.117 149.273 264.643V263.812L146.559 263.979C145.201 264.057 144.42 264.662 144.42 265.609V265.629ZM153.219 268.5V254.408H154.918V268.5H153.219Z" fill="#294B29"/>
<rect x="278.4" y="237.4" width="211.2" height="48.2" rx="4.6" stroke="#D9D9D9" stroke-width="0.8"/>
<circle cx="308" cy="261.5" r="9.5" stroke="#D9D9D9"/>
<path d="M333.367 268.5V254.408H341.922V255.99H335.125V260.834H341.365V262.396H335.125V268.5H333.367ZM345.955 268.695C343.934 268.695 342.576 267.475 342.576 265.629V265.609C342.576 263.881 343.924 262.797 346.258 262.66L349.168 262.494V261.645C349.168 260.404 348.357 259.652 346.941 259.652C345.633 259.652 344.812 260.277 344.617 261.186L344.598 261.273H342.957L342.967 261.166C343.113 259.496 344.568 258.148 346.961 258.148C349.363 258.148 350.867 259.447 350.867 261.479V268.5H349.168V266.85H349.129C348.533 267.963 347.312 268.695 345.955 268.695ZM344.314 265.629C344.314 266.605 345.115 267.221 346.336 267.221C347.938 267.221 349.168 266.117 349.168 264.643V263.812L346.453 263.979C345.096 264.057 344.314 264.662 344.314 265.609V265.629ZM353.025 268.5V258.344H354.725V260.062H354.764C355.105 258.891 355.984 258.148 357.127 258.148C357.42 258.148 357.674 258.197 357.811 258.217V259.867C357.674 259.818 357.312 259.77 356.902 259.77C355.584 259.77 354.725 260.688 354.725 262.23V268.5H353.025ZM359.197 268.5V258.344H360.896V259.828H360.936C361.395 258.822 362.41 258.148 363.719 258.148C365.105 258.148 366.131 258.861 366.57 260.102H366.609C367.176 258.881 368.367 258.148 369.793 258.148C371.805 258.148 373.104 259.467 373.104 261.488V268.5H371.404V261.879C371.404 260.482 370.633 259.652 369.295 259.652C367.947 259.652 367 260.658 367 262.045V268.5H365.301V261.693C365.301 260.463 364.48 259.652 363.221 259.652C361.873 259.652 360.896 260.717 360.896 262.133V268.5H359.197ZM379.451 268.695C376.531 268.695 374.773 266.654 374.773 263.461V263.451C374.773 260.307 376.57 258.148 379.344 258.148C382.117 258.148 383.807 260.209 383.807 263.256V263.881H376.492C376.531 265.971 377.684 267.191 379.49 267.191C380.779 267.191 381.688 266.547 381.98 265.678L382.01 265.59H383.68L383.66 265.688C383.328 267.367 381.668 268.695 379.451 268.695ZM379.334 259.652C377.859 259.652 376.707 260.658 376.521 262.553H382.078C381.912 260.58 380.818 259.652 379.334 259.652ZM385.525 268.5V258.344H387.225V260.062H387.264C387.605 258.891 388.484 258.148 389.627 258.148C389.92 258.148 390.174 258.197 390.311 258.217V259.867C390.174 259.818 389.812 259.77 389.402 259.77C388.084 259.77 387.225 260.688 387.225 262.23V268.5H385.525Z" fill="#D9D9D9"/>
<rect x="30.4" y="335.4" width="459.2" height="48.2" rx="4.6" stroke="#D9D9D9" stroke-width="0.8"/>
<path d="M54.7197 366V360.542L50.2197 353.317H52.0215L55.4844 359.013H55.5371L59 353.317H60.8018L56.3018 360.542V366H54.7197ZM64.1328 366.176C61.5928 366.176 59.8965 364.339 59.8965 361.43V361.412C59.8965 358.503 61.6016 356.684 64.124 356.684C66.6465 356.684 68.3604 358.494 68.3604 361.412V361.43C68.3604 364.348 66.6553 366.176 64.1328 366.176ZM64.1416 364.822C65.75 364.822 66.7959 363.574 66.7959 361.43V361.412C66.7959 359.268 65.7412 358.037 64.124 358.037C62.5332 358.037 61.4609 359.276 61.4609 361.412V361.43C61.4609 363.583 62.5244 364.822 64.1416 364.822ZM73.0273 366.176C71.0234 366.176 69.8633 364.875 69.8633 362.792V356.859H71.3926V362.52C71.3926 364.005 72.0869 364.822 73.4932 364.822C74.9346 364.822 75.875 363.794 75.875 362.238V356.859H77.4043V366H75.875V364.699H75.8398C75.3477 365.552 74.416 366.176 73.0273 366.176ZM79.3994 366V356.859H80.9287V358.406H80.9639C81.2715 357.352 82.0625 356.684 83.0908 356.684C83.3545 356.684 83.583 356.728 83.7061 356.745V358.23C83.583 358.187 83.2578 358.143 82.8887 358.143C81.7021 358.143 80.9287 358.969 80.9287 360.357V366H79.3994ZM89.1377 366V358.125H87.8633V356.859H89.1377V355.734C89.1377 353.977 89.9551 353.142 91.6426 353.142C91.9854 353.142 92.3457 353.168 92.5742 353.203V354.442C92.3896 354.416 92.1523 354.407 91.915 354.407C91.0713 354.407 90.6494 354.838 90.6494 355.743V356.859H92.5303V358.125H90.667V366H89.1377ZM97.2324 366.176C95.2285 366.176 94.0684 364.875 94.0684 362.792V356.859H95.5977V362.52C95.5977 364.005 96.292 364.822 97.6982 364.822C99.1396 364.822 100.08 363.794 100.08 362.238V356.859H101.609V366H100.08V364.699H100.045C99.5527 365.552 98.6211 366.176 97.2324 366.176ZM103.684 366V353.317H105.213V366H103.684ZM107.357 366V353.317H108.887V366H107.357ZM114.644 366V356.859H116.173V358.16H116.208C116.7 357.308 117.632 356.684 119.021 356.684C121.024 356.684 122.185 357.984 122.185 360.067V366H120.655V360.34C120.655 358.854 119.961 358.037 118.555 358.037C117.113 358.037 116.173 359.065 116.173 360.621V366H114.644ZM126.808 366.176C124.988 366.176 123.767 365.077 123.767 363.416V363.398C123.767 361.843 124.979 360.867 127.08 360.744L129.699 360.595V359.83C129.699 358.714 128.97 358.037 127.695 358.037C126.518 358.037 125.779 358.6 125.604 359.417L125.586 359.496H124.109L124.118 359.399C124.25 357.896 125.56 356.684 127.713 356.684C129.875 356.684 131.229 357.853 131.229 359.681V366H129.699V364.515H129.664C129.128 365.517 128.029 366.176 126.808 366.176ZM125.331 363.416C125.331 364.295 126.052 364.849 127.15 364.849C128.592 364.849 129.699 363.855 129.699 362.528V361.781L127.256 361.931C126.034 362.001 125.331 362.546 125.331 363.398V363.416ZM133.171 366V356.859H134.7V358.195H134.735C135.148 357.29 136.062 356.684 137.24 356.684C138.488 356.684 139.411 357.325 139.807 358.441H139.842C140.352 357.343 141.424 356.684 142.707 356.684C144.518 356.684 145.687 357.87 145.687 359.689V366H144.157V360.041C144.157 358.784 143.463 358.037 142.259 358.037C141.046 358.037 140.193 358.942 140.193 360.19V366H138.664V359.874C138.664 358.767 137.926 358.037 136.792 358.037C135.579 358.037 134.7 358.995 134.7 360.27V366H133.171ZM151.399 366.176C148.771 366.176 147.189 364.339 147.189 361.465V361.456C147.189 358.626 148.807 356.684 151.303 356.684C153.799 356.684 155.319 358.538 155.319 361.28V361.843H148.736C148.771 363.724 149.809 364.822 151.435 364.822C152.595 364.822 153.412 364.242 153.676 363.46L153.702 363.381H155.205L155.188 363.469C154.889 364.98 153.395 366.176 151.399 366.176ZM151.294 358.037C149.967 358.037 148.93 358.942 148.763 360.647H153.764C153.614 358.872 152.63 358.037 151.294 358.037Z" fill="#D9D9D9"/>
<path d="M31.2305 322V309.317H38.9297V310.741H32.8125V315.101H38.4287V316.507H32.8125V322H31.2305ZM43.623 322.176C41.6191 322.176 40.459 320.875 40.459 318.792V312.859H41.9883V318.52C41.9883 320.005 42.6826 320.822 44.0889 320.822C45.5303 320.822 46.4707 319.794 46.4707 318.238V312.859H48V322H46.4707V320.699H46.4355C45.9434 321.552 45.0117 322.176 43.623 322.176ZM50.0742 322V309.317H51.6035V322H50.0742ZM53.748 322V309.317H55.2773V322H53.748ZM61.2715 322V309.317H62.8096L69.7881 319.328H69.832V309.317H71.3965V322H69.8584L62.8799 311.989H62.8359V322H61.2715ZM76.0283 322.176C74.209 322.176 72.9873 321.077 72.9873 319.416V319.398C72.9873 317.843 74.2002 316.867 76.3008 316.744L78.9199 316.595V315.83C78.9199 314.714 78.1904 314.037 76.916 314.037C75.7383 314.037 75 314.6 74.8242 315.417L74.8066 315.496H73.3301L73.3389 315.399C73.4707 313.896 74.7803 312.684 76.9336 312.684C79.0957 312.684 80.4492 313.853 80.4492 315.681V322H78.9199V320.515H78.8848C78.3486 321.517 77.25 322.176 76.0283 322.176ZM74.5518 319.416C74.5518 320.295 75.2725 320.849 76.3711 320.849C77.8125 320.849 78.9199 319.855 78.9199 318.528V317.781L76.4766 317.931C75.2549 318.001 74.5518 318.546 74.5518 319.398V319.416ZM82.3916 322V312.859H83.9209V314.195H83.9561C84.3691 313.29 85.2832 312.684 86.4609 312.684C87.709 312.684 88.6318 313.325 89.0273 314.441H89.0625C89.5723 313.343 90.6445 312.684 91.9277 312.684C93.7383 312.684 94.9072 313.87 94.9072 315.689V322H93.3779V316.041C93.3779 314.784 92.6836 314.037 91.4795 314.037C90.2666 314.037 89.4141 314.942 89.4141 316.19V322H87.8848V315.874C87.8848 314.767 87.1465 314.037 86.0127 314.037C84.7998 314.037 83.9209 314.995 83.9209 316.27V322H82.3916ZM100.62 322.176C97.9922 322.176 96.4102 320.339 96.4102 317.465V317.456C96.4102 314.626 98.0273 312.684 100.523 312.684C103.02 312.684 104.54 314.538 104.54 317.28V317.843H97.957C97.9922 319.724 99.0293 320.822 100.655 320.822C101.815 320.822 102.633 320.242 102.896 319.46L102.923 319.381H104.426L104.408 319.469C104.109 320.98 102.615 322.176 100.62 322.176ZM100.515 314.037C99.1875 314.037 98.1504 314.942 97.9834 316.647H102.984C102.835 314.872 101.851 314.037 100.515 314.037Z" fill="#294B29"/>
<rect x="30.4" y="430.4" width="459.2" height="48.2" rx="4.6" stroke="#D9D9D9" stroke-width="0.8"/>
<path d="M54.7197 461V455.542L50.2197 448.317H52.0215L55.4844 454.013H55.5371L59 448.317H60.8018L56.3018 455.542V461H54.7197ZM64.1328 461.176C61.5928 461.176 59.8965 459.339 59.8965 456.43V456.412C59.8965 453.503 61.6016 451.684 64.124 451.684C66.6465 451.684 68.3604 453.494 68.3604 456.412V456.43C68.3604 459.348 66.6553 461.176 64.1328 461.176ZM64.1416 459.822C65.75 459.822 66.7959 458.574 66.7959 456.43V456.412C66.7959 454.268 65.7412 453.037 64.124 453.037C62.5332 453.037 61.4609 454.276 61.4609 456.412V456.43C61.4609 458.583 62.5244 459.822 64.1416 459.822ZM73.0273 461.176C71.0234 461.176 69.8633 459.875 69.8633 457.792V451.859H71.3926V457.52C71.3926 459.005 72.0869 459.822 73.4932 459.822C74.9346 459.822 75.875 458.794 75.875 457.238V451.859H77.4043V461H75.875V459.699H75.8398C75.3477 460.552 74.416 461.176 73.0273 461.176ZM79.3994 461V451.859H80.9287V453.406H80.9639C81.2715 452.352 82.0625 451.684 83.0908 451.684C83.3545 451.684 83.583 451.728 83.7061 451.745V453.23C83.583 453.187 83.2578 453.143 82.8887 453.143C81.7021 453.143 80.9287 453.969 80.9287 455.357V461H79.3994ZM91.3174 461.176C89.498 461.176 88.2764 460.077 88.2764 458.416V458.398C88.2764 456.843 89.4893 455.867 91.5898 455.744L94.209 455.595V454.83C94.209 453.714 93.4795 453.037 92.2051 453.037C91.0273 453.037 90.2891 453.6 90.1133 454.417L90.0957 454.496H88.6191L88.6279 454.399C88.7598 452.896 90.0693 451.684 92.2227 451.684C94.3848 451.684 95.7383 452.853 95.7383 454.681V461H94.209V459.515H94.1738C93.6377 460.517 92.5391 461.176 91.3174 461.176ZM89.8408 458.416C89.8408 459.295 90.5615 459.849 91.6602 459.849C93.1016 459.849 94.209 458.855 94.209 457.528V456.781L91.7656 456.931C90.5439 457.001 89.8408 457.546 89.8408 458.398V458.416ZM101.469 461.176C98.876 461.176 97.2324 459.33 97.2324 456.421V456.412C97.2324 453.529 98.9111 451.684 101.451 451.684C103.728 451.684 105.072 453.195 105.266 454.76L105.274 454.83H103.78L103.763 454.76C103.534 453.846 102.796 453.037 101.451 453.037C99.8604 453.037 98.7969 454.355 98.7969 456.43V456.438C98.7969 458.565 99.8867 459.822 101.469 459.822C102.717 459.822 103.517 459.119 103.771 458.1L103.789 458.029H105.292L105.283 458.091C105.037 459.831 103.534 461.176 101.469 461.176ZM109.669 461.176C107.99 461.176 107.164 460.42 107.164 458.671V453.125H105.828V451.859H107.164V449.39H108.746V451.859H110.486V453.125H108.746V458.662C108.746 459.638 109.177 459.91 109.994 459.91C110.179 459.91 110.354 459.884 110.486 459.875V461.114C110.293 461.141 109.968 461.176 109.669 461.176ZM112.991 450.312C112.464 450.312 112.033 449.882 112.033 449.354C112.033 448.818 112.464 448.396 112.991 448.396C113.527 448.396 113.949 448.818 113.949 449.354C113.949 449.882 113.527 450.312 112.991 450.312ZM112.227 461V451.859H113.756V461H112.227ZM118.414 461L115.048 451.859H116.656L119.179 459.374H119.214L121.745 451.859H123.336L119.979 461H118.414ZM127.95 461.176C125.322 461.176 123.74 459.339 123.74 456.465V456.456C123.74 453.626 125.357 451.684 127.854 451.684C130.35 451.684 131.87 453.538 131.87 456.28V456.843H125.287C125.322 458.724 126.359 459.822 127.985 459.822C129.146 459.822 129.963 459.242 130.227 458.46L130.253 458.381H131.756L131.738 458.469C131.439 459.98 129.945 461.176 127.95 461.176ZM127.845 453.037C126.518 453.037 125.48 453.942 125.313 455.647H130.314C130.165 453.872 129.181 453.037 127.845 453.037ZM140.87 461.176C138.242 461.176 136.66 459.339 136.66 456.465V456.456C136.66 453.626 138.277 451.684 140.773 451.684C143.27 451.684 144.79 453.538 144.79 456.28V456.843H138.207C138.242 458.724 139.279 459.822 140.905 459.822C142.065 459.822 142.883 459.242 143.146 458.46L143.173 458.381H144.676L144.658 458.469C144.359 459.98 142.865 461.176 140.87 461.176ZM140.765 453.037C139.438 453.037 138.4 453.942 138.233 455.647H143.234C143.085 453.872 142.101 453.037 140.765 453.037ZM146.337 461V451.859H147.866V453.195H147.901C148.314 452.29 149.229 451.684 150.406 451.684C151.654 451.684 152.577 452.325 152.973 453.441H153.008C153.518 452.343 154.59 451.684 155.873 451.684C157.684 451.684 158.853 452.87 158.853 454.689V461H157.323V455.041C157.323 453.784 156.629 453.037 155.425 453.037C154.212 453.037 153.359 453.942 153.359 455.19V461H151.83V454.874C151.83 453.767 151.092 453.037 149.958 453.037C148.745 453.037 147.866 453.995 147.866 455.27V461H146.337ZM163.476 461.176C161.656 461.176 160.435 460.077 160.435 458.416V458.398C160.435 456.843 161.647 455.867 163.748 455.744L166.367 455.595V454.83C166.367 453.714 165.638 453.037 164.363 453.037C163.186 453.037 162.447 453.6 162.271 454.417L162.254 454.496H160.777L160.786 454.399C160.918 452.896 162.228 451.684 164.381 451.684C166.543 451.684 167.896 452.853 167.896 454.681V461H166.367V459.515H166.332C165.796 460.517 164.697 461.176 163.476 461.176ZM161.999 458.416C161.999 459.295 162.72 459.849 163.818 459.849C165.26 459.849 166.367 458.855 166.367 457.528V456.781L163.924 456.931C162.702 457.001 161.999 457.546 161.999 458.398V458.416ZM170.7 450.312C170.173 450.312 169.742 449.882 169.742 449.354C169.742 448.818 170.173 448.396 170.7 448.396C171.236 448.396 171.658 448.818 171.658 449.354C171.658 449.882 171.236 450.312 170.7 450.312ZM169.936 461V451.859H171.465V461H169.936ZM173.627 461V448.317H175.156V461H173.627Z" fill="#D9D9D9"/>
<path d="M31.2305 417V404.317H39.0879V405.741H32.8125V409.811H38.7627V411.217H32.8125V415.576H39.0879V417H31.2305ZM40.9424 417V407.859H42.4717V409.195H42.5068C42.9199 408.29 43.834 407.684 45.0117 407.684C46.2598 407.684 47.1826 408.325 47.5781 409.441H47.6133C48.123 408.343 49.1953 407.684 50.4785 407.684C52.2891 407.684 53.458 408.87 53.458 410.689V417H51.9287V411.041C51.9287 409.784 51.2344 409.037 50.0303 409.037C48.8174 409.037 47.9648 409.942 47.9648 411.19V417H46.4355V410.874C46.4355 409.767 45.6973 409.037 44.5635 409.037C43.3506 409.037 42.4717 409.995 42.4717 411.27V417H40.9424ZM58.0811 417.176C56.2617 417.176 55.04 416.077 55.04 414.416V414.398C55.04 412.843 56.2529 411.867 58.3535 411.744L60.9727 411.595V410.83C60.9727 409.714 60.2432 409.037 58.9688 409.037C57.791 409.037 57.0527 409.6 56.877 410.417L56.8594 410.496H55.3828L55.3916 410.399C55.5234 408.896 56.833 407.684 58.9863 407.684C61.1484 407.684 62.502 408.853 62.502 410.681V417H60.9727V415.515H60.9375C60.4014 416.517 59.3027 417.176 58.0811 417.176ZM56.6045 414.416C56.6045 415.295 57.3252 415.849 58.4238 415.849C59.8652 415.849 60.9727 414.855 60.9727 413.528V412.781L58.5293 412.931C57.3076 413.001 56.6045 413.546 56.6045 414.398V414.416ZM65.3057 406.312C64.7783 406.312 64.3477 405.882 64.3477 405.354C64.3477 404.818 64.7783 404.396 65.3057 404.396C65.8418 404.396 66.2637 404.818 66.2637 405.354C66.2637 405.882 65.8418 406.312 65.3057 406.312ZM64.541 417V407.859H66.0703V417H64.541ZM68.2324 417V404.317H69.7617V417H68.2324Z" fill="#294B29"/>
<rect x="30.4" y="525.4" width="459.2" height="48.2" rx="4.6" stroke="#D9D9D9" stroke-width="0.8"/>
<path d="M54.7197 556V550.542L50.2197 543.317H52.0215L55.4844 549.013H55.5371L59 543.317H60.8018L56.3018 550.542V556H54.7197ZM64.1328 556.176C61.5928 556.176 59.8965 554.339 59.8965 551.43V551.412C59.8965 548.503 61.6016 546.684 64.124 546.684C66.6465 546.684 68.3604 548.494 68.3604 551.412V551.43C68.3604 554.348 66.6553 556.176 64.1328 556.176ZM64.1416 554.822C65.75 554.822 66.7959 553.574 66.7959 551.43V551.412C66.7959 549.268 65.7412 548.037 64.124 548.037C62.5332 548.037 61.4609 549.276 61.4609 551.412V551.43C61.4609 553.583 62.5244 554.822 64.1416 554.822ZM73.0273 556.176C71.0234 556.176 69.8633 554.875 69.8633 552.792V546.859H71.3926V552.52C71.3926 554.005 72.0869 554.822 73.4932 554.822C74.9346 554.822 75.875 553.794 75.875 552.238V546.859H77.4043V556H75.875V554.699H75.8398C75.3477 555.552 74.416 556.176 73.0273 556.176ZM79.3994 556V546.859H80.9287V548.406H80.9639C81.2715 547.352 82.0625 546.684 83.0908 546.684C83.3545 546.684 83.583 546.728 83.7061 546.745V548.23C83.583 548.187 83.2578 548.143 82.8887 548.143C81.7021 548.143 80.9287 548.969 80.9287 550.357V556H79.3994ZM91.3174 556.176C89.498 556.176 88.2764 555.077 88.2764 553.416V553.398C88.2764 551.843 89.4893 550.867 91.5898 550.744L94.209 550.595V549.83C94.209 548.714 93.4795 548.037 92.2051 548.037C91.0273 548.037 90.2891 548.6 90.1133 549.417L90.0957 549.496H88.6191L88.6279 549.399C88.7598 547.896 90.0693 546.684 92.2227 546.684C94.3848 546.684 95.7383 547.853 95.7383 549.681V556H94.209V554.515H94.1738C93.6377 555.517 92.5391 556.176 91.3174 556.176ZM89.8408 553.416C89.8408 554.295 90.5615 554.849 91.6602 554.849C93.1016 554.849 94.209 553.855 94.209 552.528V551.781L91.7656 551.931C90.5439 552.001 89.8408 552.546 89.8408 553.398V553.416ZM101.469 556.176C98.876 556.176 97.2324 554.33 97.2324 551.421V551.412C97.2324 548.529 98.9111 546.684 101.451 546.684C103.728 546.684 105.072 548.195 105.266 549.76L105.274 549.83H103.78L103.763 549.76C103.534 548.846 102.796 548.037 101.451 548.037C99.8604 548.037 98.7969 549.355 98.7969 551.43V551.438C98.7969 553.565 99.8867 554.822 101.469 554.822C102.717 554.822 103.517 554.119 103.771 553.1L103.789 553.029H105.292L105.283 553.091C105.037 554.831 103.534 556.176 101.469 556.176ZM109.669 556.176C107.99 556.176 107.164 555.42 107.164 553.671V548.125H105.828V546.859H107.164V544.39H108.746V546.859H110.486V548.125H108.746V553.662C108.746 554.638 109.177 554.91 109.994 554.91C110.179 554.91 110.354 554.884 110.486 554.875V556.114C110.293 556.141 109.968 556.176 109.669 556.176ZM112.991 545.312C112.464 545.312 112.033 544.882 112.033 544.354C112.033 543.818 112.464 543.396 112.991 543.396C113.527 543.396 113.949 543.818 113.949 544.354C113.949 544.882 113.527 545.312 112.991 545.312ZM112.227 556V546.859H113.756V556H112.227ZM118.414 556L115.048 546.859H116.656L119.179 554.374H119.214L121.745 546.859H123.336L119.979 556H118.414ZM127.95 556.176C125.322 556.176 123.74 554.339 123.74 551.465V551.456C123.74 548.626 125.357 546.684 127.854 546.684C130.35 546.684 131.87 548.538 131.87 551.28V551.843H125.287C125.322 553.724 126.359 554.822 127.985 554.822C129.146 554.822 129.963 554.242 130.227 553.46L130.253 553.381H131.756L131.738 553.469C131.439 554.98 129.945 556.176 127.95 556.176ZM127.845 548.037C126.518 548.037 125.48 548.942 125.313 550.647H130.314C130.165 548.872 129.181 548.037 127.845 548.037ZM140.87 556.176C138.242 556.176 136.66 554.339 136.66 551.465V551.456C136.66 548.626 138.277 546.684 140.773 546.684C143.27 546.684 144.79 548.538 144.79 551.28V551.843H138.207C138.242 553.724 139.279 554.822 140.905 554.822C142.065 554.822 142.883 554.242 143.146 553.46L143.173 553.381H144.676L144.658 553.469C144.359 554.98 142.865 556.176 140.87 556.176ZM140.765 548.037C139.438 548.037 138.4 548.942 138.233 550.647H143.234C143.085 548.872 142.101 548.037 140.765 548.037ZM146.337 556V546.859H147.866V548.195H147.901C148.314 547.29 149.229 546.684 150.406 546.684C151.654 546.684 152.577 547.325 152.973 548.441H153.008C153.518 547.343 154.59 546.684 155.873 546.684C157.684 546.684 158.853 547.87 158.853 549.689V556H157.323V550.041C157.323 548.784 156.629 548.037 155.425 548.037C154.212 548.037 153.359 548.942 153.359 550.19V556H151.83V549.874C151.83 548.767 151.092 548.037 149.958 548.037C148.745 548.037 147.866 548.995 147.866 550.27V556H146.337ZM163.476 556.176C161.656 556.176 160.435 555.077 160.435 553.416V553.398C160.435 551.843 161.647 550.867 163.748 550.744L166.367 550.595V549.83C166.367 548.714 165.638 548.037 164.363 548.037C163.186 548.037 162.447 548.6 162.271 549.417L162.254 549.496H160.777L160.786 549.399C160.918 547.896 162.228 546.684 164.381 546.684C166.543 546.684 167.896 547.853 167.896 549.681V556H166.367V554.515H166.332C165.796 555.517 164.697 556.176 163.476 556.176ZM161.999 553.416C161.999 554.295 162.72 554.849 163.818 554.849C165.26 554.849 166.367 553.855 166.367 552.528V551.781L163.924 551.931C162.702 552.001 161.999 552.546 161.999 553.398V553.416ZM170.7 545.312C170.173 545.312 169.742 544.882 169.742 544.354C169.742 543.818 170.173 543.396 170.7 543.396C171.236 543.396 171.658 543.818 171.658 544.354C171.658 544.882 171.236 545.312 170.7 545.312ZM169.936 556V546.859H171.465V556H169.936ZM173.627 556V543.317H175.156V556H173.627Z" fill="#D9D9D9"/>
<rect x="30.4" y="611.4" width="459.2" height="54.2" rx="27.1" fill="#B7EB47"/>
<rect x="30.4" y="611.4" width="459.2" height="54.2" rx="27.1" stroke="#294B29" stroke-width="0.8"/>
<path d="M182.141 647V639.723L176.141 630.09H178.543L183.16 637.684H183.23L187.848 630.09H190.25L184.25 639.723V647H182.141ZM194.691 647.234C191.305 647.234 189.043 644.785 189.043 640.906V640.883C189.043 637.004 191.316 634.578 194.68 634.578C198.043 634.578 200.328 636.992 200.328 640.883V640.906C200.328 644.797 198.055 647.234 194.691 647.234ZM194.703 645.43C196.848 645.43 198.242 643.766 198.242 640.906V640.883C198.242 638.023 196.836 636.383 194.68 636.383C192.559 636.383 191.129 638.035 191.129 640.883V640.906C191.129 643.777 192.547 645.43 194.703 645.43ZM206.551 647.234C203.879 647.234 202.332 645.5 202.332 642.723V634.812H204.371V642.359C204.371 644.34 205.297 645.43 207.172 645.43C209.094 645.43 210.348 644.059 210.348 641.984V634.812H212.387V647H210.348V645.266H210.301C209.645 646.402 208.402 647.234 206.551 647.234ZM215.047 647V634.812H217.086V636.875H217.133C217.543 635.469 218.598 634.578 219.969 634.578C220.32 634.578 220.625 634.637 220.789 634.66V636.641C220.625 636.582 220.191 636.523 219.699 636.523C218.117 636.523 217.086 637.625 217.086 639.477V647H215.047ZM230.938 647.234C228.512 647.234 226.883 645.77 226.883 643.555V643.531C226.883 641.457 228.5 640.156 231.301 639.992L234.793 639.793V638.773C234.793 637.285 233.82 636.383 232.121 636.383C230.551 636.383 229.566 637.133 229.332 638.223L229.309 638.328H227.34L227.352 638.199C227.527 636.195 229.273 634.578 232.145 634.578C235.027 634.578 236.832 636.137 236.832 638.574V647H234.793V645.02H234.746C234.031 646.355 232.566 647.234 230.938 647.234ZM228.969 643.555C228.969 644.727 229.93 645.465 231.395 645.465C233.316 645.465 234.793 644.141 234.793 642.371V641.375L231.535 641.574C229.906 641.668 228.969 642.395 228.969 643.531V643.555ZM244.473 647.234C241.016 647.234 238.824 644.773 238.824 640.895V640.883C238.824 637.039 241.062 634.578 244.449 634.578C247.484 634.578 249.277 636.594 249.535 638.68L249.547 638.773H247.555L247.531 638.68C247.227 637.461 246.242 636.383 244.449 636.383C242.328 636.383 240.91 638.141 240.91 640.906V640.918C240.91 643.754 242.363 645.43 244.473 645.43C246.137 645.43 247.203 644.492 247.543 643.133L247.566 643.039H249.57L249.559 643.121C249.23 645.441 247.227 647.234 244.473 647.234ZM255.406 647.234C253.168 647.234 252.066 646.227 252.066 643.895V636.5H250.285V634.812H252.066V631.52H254.176V634.812H256.496V636.5H254.176V643.883C254.176 645.184 254.75 645.547 255.84 645.547C256.086 645.547 256.32 645.512 256.496 645.5V647.152C256.238 647.188 255.805 647.234 255.406 647.234ZM259.836 632.75C259.133 632.75 258.559 632.176 258.559 631.473C258.559 630.758 259.133 630.195 259.836 630.195C260.551 630.195 261.113 630.758 261.113 631.473C261.113 632.176 260.551 632.75 259.836 632.75ZM258.816 647V634.812H260.855V647H258.816ZM267.066 647L262.578 634.812H264.723L268.086 644.832H268.133L271.508 634.812H273.629L269.152 647H267.066ZM279.781 647.234C276.277 647.234 274.168 644.785 274.168 640.953V640.941C274.168 637.168 276.324 634.578 279.652 634.578C282.98 634.578 285.008 637.051 285.008 640.707V641.457H276.23C276.277 643.965 277.66 645.43 279.828 645.43C281.375 645.43 282.465 644.656 282.816 643.613L282.852 643.508H284.855L284.832 643.625C284.434 645.641 282.441 647.234 279.781 647.234ZM279.641 636.383C277.871 636.383 276.488 637.59 276.266 639.863H282.934C282.734 637.496 281.422 636.383 279.641 636.383ZM297.008 647.234C293.504 647.234 291.395 644.785 291.395 640.953V640.941C291.395 637.168 293.551 634.578 296.879 634.578C300.207 634.578 302.234 637.051 302.234 640.707V641.457H293.457C293.504 643.965 294.887 645.43 297.055 645.43C298.602 645.43 299.691 644.656 300.043 643.613L300.078 643.508H302.082L302.059 643.625C301.66 645.641 299.668 647.234 297.008 647.234ZM296.867 636.383C295.098 636.383 293.715 637.59 293.492 639.863H300.16C299.961 637.496 298.648 636.383 296.867 636.383ZM304.297 647V634.812H306.336V636.594H306.383C306.934 635.387 308.152 634.578 309.723 634.578C311.387 634.578 312.617 635.434 313.145 636.922H313.191C313.871 635.457 315.301 634.578 317.012 634.578C319.426 634.578 320.984 636.16 320.984 638.586V647H318.945V639.055C318.945 637.379 318.02 636.383 316.414 636.383C314.797 636.383 313.66 637.59 313.66 639.254V647H311.621V638.832C311.621 637.355 310.637 636.383 309.125 636.383C307.508 636.383 306.336 637.66 306.336 639.359V647H304.297ZM327.148 647.234C324.723 647.234 323.094 645.77 323.094 643.555V643.531C323.094 641.457 324.711 640.156 327.512 639.992L331.004 639.793V638.773C331.004 637.285 330.031 636.383 328.332 636.383C326.762 636.383 325.777 637.133 325.543 638.223L325.52 638.328H323.551L323.562 638.199C323.738 636.195 325.484 634.578 328.355 634.578C331.238 634.578 333.043 636.137 333.043 638.574V647H331.004V645.02H330.957C330.242 646.355 328.777 647.234 327.148 647.234ZM325.18 643.555C325.18 644.727 326.141 645.465 327.605 645.465C329.527 645.465 331.004 644.141 331.004 642.371V641.375L327.746 641.574C326.117 641.668 325.18 642.395 325.18 643.531V643.555ZM336.781 632.75C336.078 632.75 335.504 632.176 335.504 631.473C335.504 630.758 336.078 630.195 336.781 630.195C337.496 630.195 338.059 630.758 338.059 631.473C338.059 632.176 337.496 632.75 336.781 632.75ZM335.762 647V634.812H337.801V647H335.762ZM340.684 647V630.09H342.723V647H340.684Z" fill="#294B29"/>
<path d="M31.2305 512V499.317H35.748C38.1299 499.317 39.8174 500.961 39.8174 503.369V503.387C39.8174 505.795 38.1299 507.474 35.748 507.474H32.8125V512H31.2305ZM35.3438 500.724H32.8125V506.067H35.3438C37.1543 506.067 38.2002 505.074 38.2002 503.404V503.387C38.2002 501.717 37.1543 500.724 35.3438 500.724ZM43.2803 512.176C41.4609 512.176 40.2393 511.077 40.2393 509.416V509.398C40.2393 507.843 41.4521 506.867 43.5527 506.744L46.1719 506.595V505.83C46.1719 504.714 45.4424 504.037 44.168 504.037C42.9902 504.037 42.252 504.6 42.0762 505.417L42.0586 505.496H40.582L40.5908 505.399C40.7227 503.896 42.0322 502.684 44.1855 502.684C46.3477 502.684 47.7012 503.853 47.7012 505.681V512H46.1719V510.515H46.1367C45.6006 511.517 44.502 512.176 43.2803 512.176ZM41.8037 509.416C41.8037 510.295 42.5244 510.849 43.623 510.849C45.0645 510.849 46.1719 509.855 46.1719 508.528V507.781L43.7285 507.931C42.5068 508.001 41.8037 508.546 41.8037 509.398V509.416ZM52.8867 512.176C50.7334 512.176 49.4326 511.077 49.248 509.442L49.2393 509.363H50.7686L50.7861 509.451C50.9707 510.365 51.6475 510.901 52.8955 510.901C54.1348 510.901 54.873 510.383 54.873 509.557V509.548C54.873 508.889 54.5303 508.52 53.4932 508.265L52.043 507.913C50.3203 507.5 49.4854 506.7 49.4854 505.382V505.373C49.4854 503.8 50.8652 502.684 52.8428 502.684C54.8467 502.684 56.1211 503.853 56.2354 505.382L56.2441 505.496H54.7852L54.7764 505.435C54.6533 504.547 53.9766 503.958 52.8428 503.958C51.7354 503.958 51.0498 504.494 51.0498 505.303V505.312C51.0498 505.936 51.4629 506.366 52.4736 506.612L53.9238 506.964C55.7695 507.412 56.4375 508.142 56.4375 509.442V509.451C56.4375 511.051 54.9258 512.176 52.8867 512.176ZM61.2715 512.176C59.1182 512.176 57.8174 511.077 57.6328 509.442L57.624 509.363H59.1533L59.1709 509.451C59.3555 510.365 60.0322 510.901 61.2803 510.901C62.5195 510.901 63.2578 510.383 63.2578 509.557V509.548C63.2578 508.889 62.915 508.52 61.8779 508.265L60.4277 507.913C58.7051 507.5 57.8701 506.7 57.8701 505.382V505.373C57.8701 503.8 59.25 502.684 61.2275 502.684C63.2314 502.684 64.5059 503.853 64.6201 505.382L64.6289 505.496H63.1699L63.1611 505.435C63.0381 504.547 62.3613 503.958 61.2275 503.958C60.1201 503.958 59.4346 504.494 59.4346 505.303V505.312C59.4346 505.936 59.8477 506.366 60.8584 506.612L62.3086 506.964C64.1543 507.412 64.8223 508.142 64.8223 509.442V509.451C64.8223 511.051 63.3105 512.176 61.2715 512.176ZM68.2236 512L65.666 502.859H67.1865L69.0146 510.295H69.0498L71.1152 502.859H72.5918L74.666 510.295H74.7012L76.5293 502.859H78.041L75.4922 512H73.9365L71.8711 504.925H71.8359L69.7793 512H68.2236ZM83.0859 512.176C80.5459 512.176 78.8496 510.339 78.8496 507.43V507.412C78.8496 504.503 80.5547 502.684 83.0771 502.684C85.5996 502.684 87.3135 504.494 87.3135 507.412V507.43C87.3135 510.348 85.6084 512.176 83.0859 512.176ZM83.0947 510.822C84.7031 510.822 85.749 509.574 85.749 507.43V507.412C85.749 505.268 84.6943 504.037 83.0771 504.037C81.4863 504.037 80.4141 505.276 80.4141 507.412V507.43C80.4141 509.583 81.4775 510.822 83.0947 510.822ZM88.8604 512V502.859H90.3896V504.406H90.4248C90.7324 503.352 91.5234 502.684 92.5518 502.684C92.8154 502.684 93.0439 502.728 93.167 502.745V504.23C93.0439 504.187 92.7188 504.143 92.3496 504.143C91.1631 504.143 90.3896 504.969 90.3896 506.357V512H88.8604ZM97.4121 512.176C95.0742 512.176 93.5273 510.312 93.5273 507.43V507.421C93.5273 504.538 95.0918 502.684 97.3857 502.684C98.6777 502.684 99.7412 503.334 100.312 504.389H100.348V499.317H101.877V512H100.348V510.453H100.312C99.7412 511.517 98.7217 512.176 97.4121 512.176ZM97.7109 510.822C99.2578 510.822 100.356 509.478 100.356 507.43V507.421C100.356 505.382 99.249 504.037 97.7109 504.037C96.0938 504.037 95.0918 505.338 95.0918 507.421V507.43C95.0918 509.53 96.0938 510.822 97.7109 510.822Z" fill="#294B29"/>
<path d="M181.393 142.415C174.503 142.415 170.153 137.667 170.153 130.014V129.997C170.153 122.344 174.52 117.629 181.393 117.629C186.904 117.629 190.955 121.065 191.586 125.946L191.603 126.112H187.402L187.319 125.797C186.622 123.058 184.514 121.348 181.393 121.348C177.209 121.348 174.536 124.685 174.536 129.997V130.014C174.536 135.343 177.226 138.696 181.393 138.696C184.447 138.696 186.589 137.053 187.369 134.098L187.419 133.932H191.619L191.586 134.098C190.972 139.012 186.904 142.415 181.393 142.415ZM194.458 142V124.402H198.592V127.44H198.675C199.223 125.315 200.684 124.037 202.709 124.037C203.224 124.037 203.705 124.12 204.021 124.203V127.938C203.672 127.806 203.041 127.706 202.344 127.706C200.003 127.706 198.592 129.184 198.592 131.79V142H194.458ZM213.218 142.349C207.938 142.349 204.751 138.846 204.751 133.251V133.234C204.751 127.689 207.988 124.037 213.019 124.037C218.049 124.037 221.17 127.573 221.17 132.886V134.214H208.852C208.918 137.302 210.611 139.128 213.301 139.128C215.359 139.128 216.704 138.032 217.103 136.854L217.136 136.737H221.004L220.954 136.92C220.406 139.626 217.816 142.349 213.218 142.349ZM213.068 127.274C210.877 127.274 209.233 128.752 208.901 131.458H217.152C216.854 128.669 215.26 127.274 213.068 127.274ZM229.039 142.299C225.52 142.299 223.146 140.124 223.146 136.986V136.953C223.146 133.832 225.569 131.956 229.836 131.69L234.435 131.408V130.196C234.435 128.42 233.272 127.341 231.181 127.341C229.222 127.341 228.026 128.254 227.761 129.549L227.728 129.698H223.893L223.909 129.499C224.158 126.378 226.864 124.037 231.33 124.037C235.729 124.037 238.568 126.361 238.568 129.897V142H234.435V139.294H234.335C233.322 141.137 231.363 142.299 229.039 142.299ZM227.263 136.82C227.263 138.265 228.458 139.145 230.268 139.145C232.642 139.145 234.435 137.567 234.435 135.476V134.147L230.417 134.396C228.375 134.529 227.263 135.409 227.263 136.804V136.82ZM248.446 142.349C244.761 142.349 243.018 140.854 243.018 137.235V127.59H240.527V124.402H243.018V119.937H247.218V124.402H250.488V127.59H247.218V136.887C247.218 138.613 247.981 139.161 249.492 139.161C249.891 139.161 250.206 139.111 250.488 139.095V142.199C250.007 142.266 249.276 142.349 248.446 142.349ZM260.731 142.349C255.452 142.349 252.265 138.846 252.265 133.251V133.234C252.265 127.689 255.502 124.037 260.532 124.037C265.562 124.037 268.684 127.573 268.684 132.886V134.214H256.365C256.432 137.302 258.125 139.128 260.814 139.128C262.873 139.128 264.218 138.032 264.616 136.854L264.649 136.737H268.518L268.468 136.92C267.92 139.626 265.33 142.349 260.731 142.349ZM260.582 127.274C258.391 127.274 256.747 128.752 256.415 131.458H264.666C264.367 128.669 262.773 127.274 260.582 127.274ZM280.521 147.844C279.724 147.844 278.894 147.744 278.396 147.661V144.507C278.711 144.573 279.192 144.656 279.773 144.656C281.351 144.656 282.23 144.208 282.762 142.73L283.011 142.017L276.686 124.402H281.201L285.318 138.48H285.435L289.568 124.402H293.918L287.593 142.598C286.248 146.466 284.189 147.844 280.521 147.844ZM302.982 142.349C297.803 142.349 294.466 138.896 294.466 133.201V133.168C294.466 127.523 297.853 124.037 302.966 124.037C308.096 124.037 311.499 127.49 311.499 133.168V133.201C311.499 138.912 308.146 142.349 302.982 142.349ZM302.999 139.012C305.605 139.012 307.282 136.887 307.282 133.201V133.168C307.282 129.499 305.589 127.391 302.966 127.391C300.393 127.391 298.683 129.516 298.683 133.168V133.201C298.683 136.903 300.359 139.012 302.999 139.012ZM320.148 142.349C316.28 142.349 314.072 139.858 314.072 135.774V124.402H318.206V134.961C318.206 137.451 319.368 138.862 321.726 138.862C324.1 138.862 325.61 137.152 325.61 134.596V124.402H329.744V142H325.61V139.244H325.527C324.614 141.12 322.805 142.349 320.148 142.349ZM333.147 142V124.402H337.281V127.44H337.364C337.912 125.315 339.373 124.037 341.398 124.037C341.913 124.037 342.395 124.12 342.71 124.203V127.938C342.361 127.806 341.73 127.706 341.033 127.706C338.692 127.706 337.281 129.184 337.281 131.79V142H333.147ZM164.741 183.299C161.222 183.299 158.848 181.124 158.848 177.986V177.953C158.848 174.832 161.271 172.956 165.538 172.69L170.137 172.408V171.196C170.137 169.42 168.975 168.341 166.883 168.341C164.924 168.341 163.729 169.254 163.463 170.549L163.43 170.698H159.595L159.611 170.499C159.86 167.378 162.566 165.037 167.032 165.037C171.432 165.037 174.271 167.361 174.271 170.897V183H170.137V180.294H170.037C169.024 182.137 167.065 183.299 164.741 183.299ZM162.965 177.82C162.965 179.265 164.16 180.145 165.97 180.145C168.344 180.145 170.137 178.567 170.137 176.476V175.147L166.119 175.396C164.077 175.529 162.965 176.409 162.965 177.804V177.82ZM185.377 183.349C180.147 183.349 176.877 179.829 176.877 174.185V174.168C176.877 168.557 180.197 165.037 185.327 165.037C189.959 165.037 192.848 167.976 193.097 171.495L193.113 171.628H189.212L189.179 171.479C188.83 169.769 187.568 168.391 185.377 168.391C182.771 168.391 181.094 170.599 181.094 174.201V174.218C181.094 177.887 182.787 180.012 185.394 180.012C187.485 180.012 188.813 178.767 189.195 176.924L189.229 176.774H193.13L193.113 176.891C192.798 180.56 189.826 183.349 185.377 183.349ZM203.373 183.349C198.144 183.349 194.873 179.829 194.873 174.185V174.168C194.873 168.557 198.193 165.037 203.323 165.037C207.955 165.037 210.844 167.976 211.093 171.495L211.109 171.628H207.208L207.175 171.479C206.826 169.769 205.564 168.391 203.373 168.391C200.767 168.391 199.09 170.599 199.09 174.201V174.218C199.09 177.887 200.783 180.012 203.39 180.012C205.481 180.012 206.81 178.767 207.191 176.924L207.225 176.774H211.126L211.109 176.891C210.794 180.56 207.822 183.349 203.373 183.349ZM221.386 183.349C216.206 183.349 212.869 179.896 212.869 174.201V174.168C212.869 168.523 216.256 165.037 221.369 165.037C226.499 165.037 229.902 168.49 229.902 174.168V174.201C229.902 179.912 226.549 183.349 221.386 183.349ZM221.402 180.012C224.009 180.012 225.686 177.887 225.686 174.201V174.168C225.686 170.499 223.992 168.391 221.369 168.391C218.796 168.391 217.086 170.516 217.086 174.168V174.201C217.086 177.903 218.763 180.012 221.402 180.012ZM238.552 183.349C234.684 183.349 232.476 180.858 232.476 176.774V165.402H236.609V175.961C236.609 178.451 237.771 179.862 240.129 179.862C242.503 179.862 244.014 178.152 244.014 175.596V165.402H248.147V183H244.014V180.244H243.931C243.018 182.12 241.208 183.349 238.552 183.349ZM251.551 183V165.402H255.685V168.158H255.768C256.681 166.266 258.474 165.037 261.146 165.037C265.015 165.037 267.223 167.527 267.223 171.611V183H263.089V172.441C263.089 169.935 261.927 168.523 259.569 168.523C257.195 168.523 255.685 170.25 255.685 172.79V183H251.551ZM277.084 183.349C273.398 183.349 271.655 181.854 271.655 178.235V168.59H269.165V165.402H271.655V160.937H275.855V165.402H279.126V168.59H275.855V177.887C275.855 179.613 276.619 180.161 278.13 180.161C278.528 180.161 278.844 180.111 279.126 180.095V183.199C278.645 183.266 277.914 183.349 277.084 183.349ZM288.888 183V159.044H293.021V168.357H293.121C294.034 166.249 295.91 165.037 298.55 165.037C302.335 165.037 304.759 167.793 304.759 172.043V183H300.625V172.856C300.625 170.15 299.264 168.523 296.89 168.523C294.549 168.523 293.021 170.3 293.021 172.856V183H288.888ZM315.832 183.349C310.553 183.349 307.365 179.846 307.365 174.251V174.234C307.365 168.689 310.603 165.037 315.633 165.037C320.663 165.037 323.784 168.573 323.784 173.886V175.214H311.466C311.532 178.302 313.226 180.128 315.915 180.128C317.974 180.128 319.318 179.032 319.717 177.854L319.75 177.737H323.618L323.568 177.92C323.021 180.626 320.431 183.349 315.832 183.349ZM315.683 168.274C313.491 168.274 311.848 169.752 311.516 172.458H319.767C319.468 169.669 317.874 168.274 315.683 168.274ZM326.457 183V165.402H330.591V168.44H330.674C331.222 166.315 332.683 165.037 334.708 165.037C335.223 165.037 335.704 165.12 336.02 165.203V168.938C335.671 168.806 335.04 168.706 334.343 168.706C332.002 168.706 330.591 170.184 330.591 172.79V183H326.457ZM345.217 183.349C339.938 183.349 336.75 179.846 336.75 174.251V174.234C336.75 168.689 339.987 165.037 345.018 165.037C350.048 165.037 353.169 168.573 353.169 173.886V175.214H340.851C340.917 178.302 342.61 180.128 345.3 180.128C347.358 180.128 348.703 179.032 349.102 177.854L349.135 177.737H353.003L352.953 177.92C352.405 180.626 349.815 183.349 345.217 183.349ZM345.067 168.274C342.876 168.274 341.232 169.752 340.9 172.458H349.151C348.853 169.669 347.259 168.274 345.067 168.274Z" fill="#294B29"/>
</svg>
